<?xml version="1.0" standalone="no"?>
<!DOCTYPE svg PUBLIC "-//W3C//DTD SVG 20010904//EN"
 "http://www.w3.org/TR/2001/REC-SVG-20010904/DTD/svg10.dtd">
<svg version="1.0" xmlns="http://www.w3.org/2000/svg"
 width="600.000000pt" height="600.000000pt" viewBox="0 0 600.000000 600.000000"
 preserveAspectRatio="xMidYMid meet">

<g transform="translate(0.000000,600.000000) scale(0.100000,-0.100000)"
fill="#000000" stroke="none">
<path d="M0 3000 l0 -3000 3000 0 3000 0 0 3000 0 3000 -3000 0 -3000 0 0
-3000z m1724 2348 c84 -105 231 -211 358 -260 27 -10 98 -32 157 -49 282 -81
396 -176 585 -489 106 -176 176 -281 192 -287 29 -11 52 20 227 302 98 159
117 184 202 270 93 94 191 148 352 195 54 16 125 38 157 49 166 58 327 186
429 341 l29 45 -5 -60 c-9 -95 -43 -188 -99 -270 -88 -133 -189 -196 -443
-279 -288 -95 -395 -167 -598 -406 -121 -141 -174 -195 -212 -216 l-34 -18
-41 29 c-23 16 -95 92 -159 170 -134 159 -217 240 -311 300 -98 63 -130 78
-314 139 -189 63 -247 89 -326 149 -70 52 -92 77 -139 157 -48 80 -81 185 -81
254 l1 51 14 -30 c7 -16 34 -56 59 -87z m1169 -318 c30 -11 73 -34 96 -50 l41
-30 46 35 c94 72 249 90 397 46 71 -22 100 -41 61 -41 -23 0 -188 -79 -255
-122 -66 -43 -182 -158 -216 -215 -14 -24 -28 -43 -33 -43 -4 0 -19 17 -33 38
-43 65 -137 161 -202 207 -65 47 -241 135 -268 135 -9 0 -18 4 -21 9 -5 8 60
30 149 51 58 13 174 4 238 -20z m1212 -337 c51 -66 101 -176 116 -251 16 -87
7 -251 -20 -325 -58 -163 -172 -282 -336 -350 -91 -38 -236 -48 -335 -23 -87
22 -195 77 -257 131 l-51 45 -97 -198 -98 -197 -93 188 c-51 103 -94 192 -96
198 -2 7 -22 -5 -43 -26 -61 -57 -166 -115 -247 -136 -206 -53 -407 0 -554
146 -185 183 -225 448 -104 690 22 44 53 96 69 115 26 30 32 33 48 23 10 -7
47 -29 83 -49 36 -21 67 -39 69 -40 1 -2 -15 -28 -38 -60 -80 -111 -108 -243
-77 -362 21 -83 54 -138 121 -201 96 -91 220 -130 351 -112 93 14 198 68 359
186 72 52 136 98 142 101 7 3 52 -23 100 -59 205 -150 317 -210 430 -227 273
-42 516 203 473 475 -12 75 -46 150 -96 211 l-33 42 79 48 c44 26 80 52 80 56
0 20 22 4 55 -39z m-1692 -138 c38 -7 52 -25 19 -25 -9 0 -35 -12 -56 -26
l-38 -26 23 -12 c28 -13 37 -45 17 -57 -23 -15 -48 -10 -57 13 l-8 22 -12 -22
c-7 -12 -15 -45 -18 -71 -8 -68 23 -130 85 -174 42 -28 55 -32 114 -32 58 0
72 4 109 30 62 43 98 100 106 163 3 28 9 52 13 52 14 0 30 -90 24 -132 -28
-181 -211 -284 -388 -218 -58 22 -129 89 -161 150 -27 51 -31 147 -10 210 28
85 127 176 180 165 11 -2 37 -7 58 -10z m1374 -24 c217 -157 90 -511 -183
-511 -109 0 -207 59 -256 153 -26 49 -30 153 -8 202 l13 30 7 -57 c9 -68 36
-116 96 -165 77 -62 177 -57 255 14 50 45 74 120 60 182 -12 53 -19 61 -35 38
-17 -22 -42 -22 -55 1 -7 13 -5 22 11 39 l21 22 -24 21 c-13 11 -35 23 -49 26
-42 11 -46 18 -15 25 73 16 121 10 162 -20z m-1759 -870 c54 -17 125 -35 160
-42 34 -6 62 -13 62 -15 0 -2 -12 -18 -27 -35 -144 -161 -244 -384 -274 -606
-16 -118 -5 -360 20 -481 25 -118 83 -291 127 -382 46 -95 152 -262 213 -335
27 -33 48 -61 46 -63 -6 -6 -91 41 -189 106 -114 75 -308 261 -379 362 -70
101 -143 245 -181 360 -35 106 -72 312 -63 356 2 13 1 24 -4 24 -19 0 -34
-123 -34 -282 l0 -168 -22 58 c-46 120 -58 198 -57 367 0 145 3 168 28 250 48
157 107 256 221 370 86 86 215 182 248 184 5 1 52 -12 105 -28z m2161 -5 c205
-116 343 -298 418 -551 14 -47 18 -95 18 -225 0 -142 -4 -178 -24 -255 -21
-79 -68 -204 -57 -150 21 94 12 287 -17 400 l-14 50 -6 -97 c-14 -197 -95
-429 -210 -603 -127 -194 -314 -364 -550 -500 -50 -29 -73 -28 -40 2 81 74
226 314 290 483 77 200 101 317 110 521 14 331 -68 588 -260 812 -27 32 -48
59 -46 61 2 1 51 13 109 26 58 13 128 31 155 41 65 23 54 24 124 -15z m-1699
-253 c6 -49 13 -94 16 -102 3 -10 37 18 104 84 55 54 103 95 107 91 14 -13 5
-155 -13 -209 -30 -91 -54 -129 -147 -221 l-90 -91 -8 30 c-4 17 -13 62 -19
102 l-12 72 -115 3 -116 3 61 80 c76 101 200 245 211 245 5 0 14 -39 21 -87z
m1142 41 c64 -69 218 -263 218 -274 0 -6 -47 -10 -114 -10 l-113 0 -13 -89
c-7 -49 -17 -95 -21 -103 -7 -10 -30 9 -93 74 -102 105 -132 154 -151 244 -15
73 -20 194 -7 194 4 -1 50 -41 101 -90 89 -85 111 -101 111 -82 1 47 28 182
35 182 3 0 24 -21 47 -46z m-501 -146 c52 -46 118 -103 147 -127 29 -25 52
-49 52 -53 0 -12 -293 -407 -302 -408 -3 0 -64 78 -135 173 -173 231 -177 237
-166 248 37 37 290 248 298 249 6 0 53 -37 106 -82z m-967 -285 c4 -10 53 -87
109 -171 l102 -152 111 115 c61 63 113 115 117 115 3 0 32 -33 64 -72 32 -40
60 -75 63 -78 3 -3 55 -67 115 -144 61 -76 122 -153 137 -170 15 -17 28 -34
28 -38 0 -30 50 24 229 247 112 140 208 255 212 255 4 0 57 -52 117 -116 l110
-117 110 167 c61 92 114 168 118 169 16 5 42 -101 43 -174 1 -119 -39 -224
-145 -380 -62 -92 -191 -249 -203 -249 -4 0 -46 53 -91 117 l-84 116 -29 -34
c-31 -37 -245 -300 -317 -391 -25 -31 -48 -56 -51 -55 -4 1 -64 72 -135 157
-289 351 -276 336 -287 307 -10 -26 -149 -217 -157 -217 -5 0 -43 42 -85 93
-242 295 -311 496 -234 690 13 31 24 34 33 10z m656 -945 c52 -41 121 -92 152
-112 l57 -38 33 23 c35 24 237 185 301 239 20 17 37 28 37 25 0 -23 -358 -567
-375 -571 -14 -4 -375 545 -375 571 0 5 17 -7 38 -27 20 -19 80 -69 132 -110z
m-250 -413 c0 -58 -25 -182 -52 -252 -14 -39 -24 -53 -36 -51 -21 4 -77 108
-93 172 -11 45 -10 49 12 71 32 32 141 104 157 105 8 0 12 -16 12 -45z m156
-4 c89 -62 98 -73 90 -113 -7 -36 -55 -141 -79 -173 -12 -16 -18 -17 -30 -7
-43 36 -95 342 -58 342 4 0 39 -22 77 -49z m704 -18 c0 -109 -51 -283 -82
-283 -27 0 -97 144 -98 201 0 35 4 40 82 93 45 31 86 56 90 56 4 0 8 -30 8
-67z m159 22 c101 -67 108 -76 92 -133 -16 -61 -74 -166 -93 -170 -28 -5 -72
137 -84 271 -5 56 -4 77 5 77 6 0 42 -20 80 -45z m-516 -187 c53 -28 63 -88
22 -132 -50 -54 -140 -16 -138 59 2 67 60 103 116 73z m-1237 -56 c6 -4 21
-27 34 -52 42 -85 114 -210 120 -210 4 0 31 44 60 98 30 53 64 114 77 135 l23
37 80 0 c44 0 80 -4 80 -9 0 -10 -103 -189 -190 -331 l-49 -81 -3 -132 -3
-132 -71 -3 -72 -3 -4 134 -3 134 -49 79 c-67 108 -185 309 -192 328 -5 14 5
16 72 16 44 0 84 -4 90 -8z m857 -172 c59 -22 119 -77 141 -130 18 -44 29
-141 18 -157 -6 -9 -61 -13 -195 -15 l-186 -3 12 -25 c34 -67 141 -91 218 -48
l38 21 41 -27 c22 -14 40 -33 40 -41 0 -19 -81 -72 -130 -85 -54 -15 -150 -11
-198 9 -60 24 -120 83 -149 148 -21 46 -25 66 -21 117 16 190 193 303 371 236z
m917 -1 c96 -43 150 -128 150 -236 l0 -63 -190 0 c-104 0 -190 -3 -190 -6 0
-16 45 -66 72 -80 43 -22 126 -15 163 14 30 24 38 21 90 -23 l30 -25 -45 -40
c-108 -96 -315 -71 -406 47 -54 71 -68 168 -37 258 21 62 93 136 154 158 64
22 154 21 209 -4z m594 -13 c31 -14 56 -28 56 -31 0 -4 -12 -29 -27 -55 l-27
-48 -43 25 c-54 31 -134 36 -161 10 -28 -29 -3 -49 94 -77 106 -31 124 -40
158 -81 53 -62 24 -174 -56 -219 -49 -28 -144 -37 -218 -21 -66 14 -140 50
-140 67 0 16 53 105 60 101 52 -31 133 -60 166 -61 52 -1 85 24 68 52 -11 17
-31 25 -147 57 -102 28 -142 89 -123 187 21 114 190 160 340 94z m-1094 -236
l0 -260 -70 0 -70 0 0 260 0 260 70 0 70 0 0 -260z"/>
<path d="M2555 1143 c-29 -7 -62 -41 -74 -74 l-10 -29 120 0 c120 0 120 0 114
23 -17 57 -90 96 -150 80z"/>
<path d="M3455 1136 c-35 -15 -60 -42 -69 -73 -7 -23 -7 -23 113 -23 81 0 121
4 121 11 0 27 -37 70 -72 84 -46 18 -54 18 -93 1z"/>
</g>
</svg>
