<?xml version="1.0" standalone="no"?>
<!DOCTYPE svg PUBLIC "-//W3C//DTD SVG 20010904//EN"
 "http://www.w3.org/TR/2001/REC-SVG-20010904/DTD/svg10.dtd">
<svg version="1.0" xmlns="http://www.w3.org/2000/svg"
 width="731.000000pt" height="586.000000pt" viewBox="0 0 731.000000 586.000000"
 preserveAspectRatio="xMidYMid meet">
<metadata>
Created by potrace 1.16, written by Peter Selinger 2001-2019
</metadata>
<g transform="translate(0.000000,586.000000) scale(0.100000,-0.100000)"
fill="#000000" stroke="none">
<path d="M1840 3625 l0 -1065 70 0 70 0 0 990 0 990 1463 2 1462 3 0 70 0 70
-1532 3 -1533 2 0 -1065z"/>
<path d="M2062 3398 l3 -1063 608 -3 607 -2 0 -130 0 -130 -90 0 -90 0 0 -105
0 -105 500 0 501 0 -3 103 -3 102 -87 3 -88 3 0 129 0 130 605 0 605 0 0 123
c1 154 1 1978 0 1995 0 9 -314 12 -1535 12 l-1535 0 2 -1062z m2923 2 l0 -915
-1387 -3 -1388 -2 0 913 c0 503 3 917 7 920 3 4 628 6 1387 5 l1381 -3 0 -915z"/>
<path d="M3718 3933 c-14 -43 -62 -181 -106 -308 -218 -624 -292 -839 -292
-842 0 -10 119 -1 128 10 9 10 208 572 407 1150 l24 67 -67 0 -68 0 -26 -77z"/>
<path d="M3914 3686 c-3 -7 -4 -40 -2 -72 l3 -58 223 -89 c123 -49 220 -93
215 -97 -4 -4 -102 -45 -218 -90 -115 -46 -213 -88 -217 -94 -13 -19 -9 -136
5 -136 6 0 139 55 295 121 l283 122 -3 84 -3 85 -283 119 c-156 65 -285 119
-288 119 -2 0 -7 -6 -10 -14z"/>
<path d="M2985 3571 l-280 -118 -3 -87 c-3 -82 -2 -87 20 -95 13 -5 140 -59
283 -120 143 -61 266 -111 272 -111 14 0 19 117 5 135 -4 6 -105 51 -225 99
-120 49 -214 92 -210 96 4 4 103 45 218 90 116 46 213 88 218 94 10 16 4 129
-8 132 -5 2 -136 -50 -290 -115z"/>
<path d="M5220 3245 l0 -985 -610 0 -610 0 0 -75 0 -75 680 0 680 0 0 1060 0
1060 -70 0 -70 0 0 -985z"/>
<path d="M4870 1591 c-130 -19 -173 -63 -178 -181 -6 -145 41 -182 239 -190
141 -6 159 -13 159 -66 0 -50 -28 -64 -125 -64 -89 1 -112 11 -124 57 -7 27
-10 28 -79 31 l-72 3 0 -33 c0 -54 39 -120 86 -145 76 -42 264 -49 359 -13 91
34 132 153 89 260 -27 68 -66 84 -220 90 -149 6 -164 12 -164 71 0 49 18 59
110 59 85 0 105 -9 120 -55 l12 -35 63 0 c35 0 67 5 70 11 4 6 4 31 0 55 -8
55 -50 106 -104 127 -48 20 -168 28 -241 18z"/>
<path d="M1970 1584 c0 -3 51 -85 113 -182 l112 -177 5 -125 5 -125 49 -3 c97
-6 96 -8 96 125 l0 116 113 180 c61 99 114 184 115 189 2 5 -31 8 -74 6 l-78
-3 -74 -118 c-41 -64 -77 -115 -82 -112 -4 2 -40 57 -79 120 l-72 115 -75 0
c-41 0 -74 -3 -74 -6z"/>
<path d="M2832 1283 l3 -308 240 0 240 0 3 58 3 57 -138 2 c-76 0 -145 0 -153
0 -8 -1 -25 1 -38 3 -21 5 -23 10 -20 63 l3 57 130 5 130 5 3 57 3 57 -133 3
-133 3 -3 58 c-2 41 1 57 10 58 36 4 85 6 206 7 l132 2 0 60 0 60 -245 0 -245
0 2 -307z"/>
<path d="M3567 1583 c-4 -3 -7 -138 -7 -299 0 -241 3 -294 15 -304 8 -7 37
-10 72 -8 l58 3 3 308 2 307 -68 0 c-38 0 -72 -3 -75 -7z"/>
<path d="M3952 1283 l3 -308 234 -2 c128 -1 240 1 247 4 10 3 14 22 14 59 l0
54 -42 1 c-24 0 -101 1 -173 2 l-130 2 -3 63 -3 62 131 0 130 0 0 60 0 60
-130 0 -131 0 3 63 3 62 155 2 c85 0 163 2 173 2 14 1 17 11 17 61 l0 60 -250
0 -250 0 2 -307z"/>
</g>
</svg>
